<svg xmlns="http://www.w3.org/2000/svg" width="364" height="425"><path fill="#FFF" fill-rule="evenodd" d="M197.501 44.762l62.586 64.429c8.786 9.05 15.913 26.666 15.913 39.345V201l-78.48-80.219c-8.81-9.027-23.118-9.027-31.945 0L88 200.155l.018-51.614c0-12.68 7.086-30.336 15.835-39.427l61.882-64.27c8.745-9.091 22.976-9.132 31.766-.082zm104.074 182.147V136.58c0-12.77-7.147-30.477-15.976-39.569L197.988 6.796c-8.834-9.092-23.124-9.05-31.912.06L79.202 96.943c-8.789 9.115-15.913 26.862-15.913 39.633v89.45l-47.312 48.707C7.147 283.806 0 301.535 0 314.306l.018 87.552c0 12.775 10.197 23.124 22.763 23.124l84.441.018c12.566 0 29.91-7.353 38.74-16.445l36.027-37.11 36.05 37.11c8.83 9.092 26.15 16.445 38.716 16.445l84.464-.018c12.566 0 22.763-10.349 22.763-23.124l.018-87.552c0-12.77-7.165-30.495-15.977-39.569l-46.448-47.828zM88 238.522v-1.7l77.615-79.995c8.83-9.103 23.14-9.103 31.97 0L276 237.679 181.586 335 88 238.522zM46.855 399c-12.673.06-22.915-10.33-22.855-23.203l.222-51.809c.064-12.867 7.327-30.707 16.237-39.868l28.3-29.12L164 352.948l-28.324 29.115c-8.904 9.161-26.396 16.634-39.068 16.698L46.855 399zM199 352.948L294.237 255l28.324 29.12c8.907 9.161 16.157 27.006 16.217 39.868l.222 51.81c.064 12.871-10.161 23.257-22.836 23.202l-49.782-.243c-12.675-.065-30.146-7.537-39.053-16.698L199 352.948z" opacity=".132"/></svg>