<svg xmlns="http://www.w3.org/2000/svg" width="57" height="70" viewBox="0 0 57 70">
    <g fill="none" fill-rule="evenodd">
        <g fill="#F8F8F9">
            <path d="M6.034 14.053h4.818v11.242H6.034zM51.004 68.66H6.034V31.72L28.519 7.629l22.485 24.09z"/>
        </g>
        <path fill="#EDEDED" d="M51.004 31.72L28.519 7.629v61.03h22.485z"/>
        <path fill="#BFA993" d="M23.7 59.023h9.636v9.636H23.7z"/>
        <path fill="#B29A7E" d="M28.519 59.023h4.818v9.636h-4.818z"/>
        <path fill="#95D5A7" d="M13.261 68.659a2.41 2.41 0 0 0 1.295-4.439 2.41 2.41 0 0 0-2.098-3.591c-.618 0-1.18.234-1.606.617a2.396 2.396 0 0 0-3.212 0 2.396 2.396 0 0 0-1.606-.617 2.41 2.41 0 0 0-2.098 3.591 2.41 2.41 0 0 0 1.295 4.439h8.03z"/>
        <path fill="#80CB93" d="M51.807 68.659A2.41 2.41 0 0 0 53.1 64.22a2.41 2.41 0 0 0-2.098-3.591c-.617 0-1.18.234-1.606.617a2.396 2.396 0 0 0-3.212 0 2.396 2.396 0 0 0-1.606-.617 2.41 2.41 0 0 0-2.097 3.591 2.41 2.41 0 0 0 1.295 4.439h8.03z"/>
        <path fill="#88888F" d="M28.519 69.864c-.666 0-1.205-.54-1.205-1.205V63.84a1.204 1.204 0 1 1 2.41 0v4.818c0 .665-.54 1.205-1.205 1.205z"/>
        <path fill="#DDDDDF" d="M55.822 28.507L28.519 1.204 1.216 28.507l4.015 4.016L28.519 9.235l23.288 23.288z"/>
        <g fill="#D1E5F5" transform="translate(13.372 21.969)">
            <circle cx="15.146" cy="2.524" r="2.409"/>
            <path d="M.049 11.357h4.818v6.424H.049z"/>
        </g>
        <path fill="#CECDCD" d="M28.519 1.204v8.03l23.288 23.289 4.015-4.016z"/>
        <g fill="#B4D8F1">
            <path d="M26.815 26.196a2.41 2.41 0 0 0 3.407-3.407l-3.407 3.407zM13.422 39.75h4.818v-4.818z"/>
        </g>
        <path fill="#D1E5F5" d="M26.109 33.326h4.818v6.424h-4.818z"/>
        <path fill="#B4D8F1" d="M26.11 39.75h4.818v-4.818z"/>
        <path fill="#D1E5F5" d="M38.958 33.326h4.818v6.424h-4.818z"/>
        <path fill="#B4D8F1" d="M38.958 39.75h4.818v-4.818z"/>
        <path fill="#D1E5F5" d="M13.422 46.174h4.818v6.424h-4.818z"/>
        <path fill="#B4D8F1" d="M13.422 52.598h4.818V47.78z"/>
        <path fill="#D1E5F5" d="M26.109 46.174h4.818v6.424h-4.818z"/>
        <path fill="#B4D8F1" d="M26.11 52.598h4.818V47.78z"/>
        <path fill="#D1E5F5" d="M38.958 46.174h4.818v6.424h-4.818z"/>
        <path fill="#B4D8F1" d="M38.958 52.598h4.818V47.78z"/>
        <g fill="#2E2D31" fill-rule="nonzero">
            <path d="M55.822 67.454h-.61a3.594 3.594 0 0 0-.692-3.59 3.62 3.62 0 0 0-2.313-4.233l.001-25.974c.164-.058.319-.151.45-.283l4.015-4.015c.47-.47.47-1.233 0-1.703L29.37.353a1.205 1.205 0 0 0-1.703 0l-15.61 15.61v-1.91c0-.665-.54-1.205-1.205-1.205H6.034c-.666 0-1.205.54-1.205 1.205v9.137L.364 27.656c-.47.47-.47 1.233 0 1.703l4.015 4.016c.131.13.286.224.45.282v25.975a3.62 3.62 0 0 0-2.313 4.233c-.574.65-.899 1.492-.899 2.385 0 .422.073.828.207 1.205h-.609a1.204 1.204 0 1 0 0 2.409h54.607a1.204 1.204 0 1 0 0-2.41zm-6.425-7.652a3.598 3.598 0 0 0-3.212 0 3.598 3.598 0 0 0-1.606-.378 3.618 3.618 0 0 0-3.517 4.44c-.574.651-.9 1.493-.9 2.386 0 .422.074.827.208 1.205H34.54v-8.432c0-.666-.539-1.205-1.204-1.205H23.7c-.665 0-1.204.54-1.204 1.205v8.432h-5.829a3.594 3.594 0 0 0-.692-3.59 3.618 3.618 0 0 0-3.517-4.44c-.562 0-1.11.13-1.606.377a3.598 3.598 0 0 0-3.212 0 3.637 3.637 0 0 0-.402-.17V32.22l21.28-21.28 21.28 21.28v27.413a3.562 3.562 0 0 0-.4.17zM7.238 15.257h2.41v3.115l-2.41 2.41v-5.525zM2.92 28.507l25.6-25.6 25.6 25.6-2.312 2.312L29.37 8.383a1.202 1.202 0 0 0-1.703 0L5.23 30.819l-2.312-2.312zm2.312 38.947c-.664 0-1.205-.54-1.205-1.204 0-.412.21-.791.559-1.015.539-.345.715-1.05.4-1.607a1.206 1.206 0 0 1 1.049-1.794c.377 0 .644.167.801.308.458.411 1.151.411 1.61 0 .156-.14.423-.309.8-.309.379 0 .645.168.803.31.457.41 1.15.41 1.608 0 .157-.142.424-.31.802-.31a1.206 1.206 0 0 1 1.049 1.795 1.204 1.204 0 0 0 .4 1.607 1.2 1.2 0 0 1 .559 1.015c0 .664-.54 1.204-1.205 1.204h-8.03zm19.674 0v-7.227h7.227v7.227h-7.227zm18.871 0c-.664 0-1.204-.54-1.204-1.204a1.2 1.2 0 0 1 .559-1.015c.538-.345.714-1.05.4-1.607a1.206 1.206 0 0 1 1.049-1.794c.377 0 .644.167.801.308.458.411 1.15.411 1.609 0 .157-.14.424-.309.801-.309.378 0 .645.168.802.31.458.41 1.151.41 1.609 0 .157-.142.424-.31.802-.31a1.206 1.206 0 0 1 1.049 1.795 1.204 1.204 0 0 0 .4 1.607 1.2 1.2 0 0 1 .558 1.015c0 .664-.54 1.204-1.204 1.204h-8.03z"/>
            <path d="M28.438 28.106a3.618 3.618 0 0 0 3.614-3.614 3.618 3.618 0 0 0-3.614-3.613 3.618 3.618 0 0 0-3.613 3.613 3.618 3.618 0 0 0 3.613 3.614zm0-4.818a1.206 1.206 0 0 1 0 2.409 1.206 1.206 0 0 1 0-2.41zM32.453 51.394h-.401v-5.22c0-.665-.54-1.205-1.205-1.205H26.03c-.665 0-1.205.54-1.205 1.205v5.22h-.401a1.204 1.204 0 1 0 0 2.409h8.03a1.204 1.204 0 1 0 0-2.41zm-5.22 0v-4.015h2.41v4.015h-2.41zM45.302 51.394H44.9v-5.22c0-.665-.539-1.205-1.204-1.205h-4.818c-.666 0-1.205.54-1.205 1.205v5.22h-.401a1.204 1.204 0 1 0 0 2.409h8.03a1.204 1.204 0 1 0 0-2.41zm-5.22 0v-4.015h2.41v4.015h-2.41zM19.766 51.394h-.402v-5.22c0-.665-.54-1.205-1.205-1.205h-4.818c-.665 0-1.204.54-1.204 1.205v5.22h-.402a1.204 1.204 0 1 0 0 2.409h8.03a1.204 1.204 0 1 0 0-2.41zm-5.22 0v-4.015h2.409v4.015h-2.41zM32.453 38.545h-.401v-5.22c0-.665-.54-1.204-1.205-1.204H26.03c-.665 0-1.205.54-1.205 1.205v5.22h-.401a1.204 1.204 0 1 0 0 2.409h8.03a1.204 1.204 0 1 0 0-2.41zm-5.22 0V34.53h2.41v4.015h-2.41zM45.302 38.545H44.9v-5.22c0-.665-.539-1.204-1.204-1.204h-4.818c-.666 0-1.205.54-1.205 1.205v5.22h-.401a1.204 1.204 0 1 0 0 2.409h8.03a1.204 1.204 0 1 0 0-2.41zm-5.22 0V34.53h2.41v4.015h-2.41zM19.766 38.545h-.402v-5.22c0-.665-.54-1.204-1.205-1.204h-4.818c-.665 0-1.204.54-1.204 1.205v5.22h-.402a1.204 1.204 0 1 0 0 2.409h8.03a1.204 1.204 0 1 0 0-2.41zm-5.22 0V34.53h2.409v4.015h-2.41z"/>
        </g>
    </g>
</svg>
