<svg xmlns="http://www.w3.org/2000/svg" width="64" height="70" viewBox="0 0 64 70">
    <g fill="none" fill-rule="evenodd">
        <path fill="#DBDBDB" d="M15.339 12.191h22.023v28.315H15.339z"/>
        <g fill="#CCCCCE">
            <path d="M32.642 12.19h6.292v28.316h-6.292zM20.058 5.899h12.584v6.292H20.058z"/>
        </g>
        <path fill="#ACAAB0" d="M37.361 5.899h22.023V68.82H37.361z"/>
        <path fill="#F8F8F9" d="M4.327 23.202H26.35V68.82H4.327z"/>
        <path fill="#EDEDED" d="M26.35 37.359h22.023V68.82H26.35z"/>
        <path fill="#DBDBDB" d="M32.642 37.359h15.73V68.82h-15.73z"/>
        <path fill="#D1E5F5" d="M12.193 62.528h6.292v6.292h-6.292z"/>
        <path fill="#88888F" d="M15.339 70a1.18 1.18 0 0 1-1.18-1.18v-3.146a1.18 1.18 0 1 1 2.36 0v3.146a1.18 1.18 0 0 1-1.18 1.18z"/>
        <g fill="#2E2D31">
            <path fill-rule="nonzero" d="M62.53 67.64h-1.967V5.9a1.18 1.18 0 0 0-1.18-1.18H37.362a1.18 1.18 0 0 0-1.18 1.18v5.112h-2.36V5.9a1.18 1.18 0 0 0-1.179-1.18H27.53V1.18a1.18 1.18 0 1 0-2.36 0v3.54h-5.112a1.18 1.18 0 0 0-1.18 1.18v5.112h-3.54a1.18 1.18 0 0 0-1.179 1.18v9.831H4.328a1.18 1.18 0 0 0-1.18 1.18V67.64H1.18a1.18 1.18 0 1 0 0 2.36H62.53a1.18 1.18 0 1 0 0-2.36zM38.54 7.08h19.664V67.64h-8.652V35.786a1.18 1.18 0 1 0-2.36 0v.394h-2.359v-.394a1.18 1.18 0 1 0-2.36 0v.394h-3.932V7.079zm-17.303 0h10.225v3.932H21.237V7.08zm-4.719 6.292H36.182V36.18H27.53v-3.933h3.54a1.18 1.18 0 1 0 0-2.36h-3.54v-3.932h3.54a1.18 1.18 0 1 0 0-2.36h-3.54v-.393a1.18 1.18 0 0 0-1.18-1.18h-9.832v-8.651zM5.508 24.382H25.17V67.64h-5.506v-5.112a1.18 1.18 0 0 0-1.18-1.18h-6.291a1.18 1.18 0 0 0-1.18 1.18v5.112H5.507V24.382zm7.864 43.259v-3.933h3.933v3.933h-3.933zm14.158 0V38.539h19.663v29.102H27.53z"/>
            <path d="M32.642 40.9a1.18 1.18 0 0 0-1.18 1.179V64.1a1.18 1.18 0 0 0 2.36 0V42.08a1.18 1.18 0 0 0-1.18-1.18zM37.361 40.9a1.18 1.18 0 0 0-1.18 1.179V64.1a1.18 1.18 0 0 0 2.36 0V42.08a1.18 1.18 0 0 0-1.18-1.18zM42.08 40.9a1.18 1.18 0 0 0-1.18 1.179V64.1a1.18 1.18 0 0 0 2.36 0V42.08a1.18 1.18 0 0 0-1.18-1.18zM43.653 14.944a1.18 1.18 0 0 0 1.18-1.18v-1.573a1.18 1.18 0 1 0-2.36 0v1.573c0 .652.529 1.18 1.18 1.18zM48.372 14.944a1.18 1.18 0 0 0 1.18-1.18v-1.573a1.18 1.18 0 1 0-2.36 0v1.573c0 .652.529 1.18 1.18 1.18zM53.091 14.944a1.18 1.18 0 0 0 1.18-1.18v-1.573a1.18 1.18 0 1 0-2.36 0v1.573c0 .652.529 1.18 1.18 1.18zM43.653 22.809a1.18 1.18 0 0 0 1.18-1.18v-1.573a1.18 1.18 0 1 0-2.36 0v1.573c0 .652.529 1.18 1.18 1.18zM48.372 22.809a1.18 1.18 0 0 0 1.18-1.18v-1.573a1.18 1.18 0 1 0-2.36 0v1.573c0 .652.529 1.18 1.18 1.18zM53.091 22.809a1.18 1.18 0 0 0 1.18-1.18v-1.573a1.18 1.18 0 1 0-2.36 0v1.573c0 .652.529 1.18 1.18 1.18zM43.653 30.674a1.18 1.18 0 0 0 1.18-1.18v-1.573a1.18 1.18 0 1 0-2.36 0v1.573c0 .652.529 1.18 1.18 1.18zM48.372 30.674a1.18 1.18 0 0 0 1.18-1.18v-1.573a1.18 1.18 0 1 0-2.36 0v1.573c0 .652.529 1.18 1.18 1.18zM53.091 30.674a1.18 1.18 0 0 0 1.18-1.18v-1.573a1.18 1.18 0 1 0-2.36 0v1.573c0 .652.529 1.18 1.18 1.18zM10.62 33.82a1.18 1.18 0 0 0 1.18-1.18v-1.573a1.18 1.18 0 1 0-2.36 0v1.574c0 .651.528 1.18 1.18 1.18zM15.339 33.82a1.18 1.18 0 0 0 1.18-1.18v-1.573a1.18 1.18 0 1 0-2.36 0v1.574c0 .651.528 1.18 1.18 1.18zM20.058 33.82a1.18 1.18 0 0 0 1.18-1.18v-1.573a1.18 1.18 0 1 0-2.36 0v1.574c0 .651.528 1.18 1.18 1.18zM10.62 41.685a1.18 1.18 0 0 0 1.18-1.18v-1.572a1.18 1.18 0 1 0-2.36 0v1.573c0 .651.528 1.18 1.18 1.18zM15.339 41.685a1.18 1.18 0 0 0 1.18-1.18v-1.572a1.18 1.18 0 1 0-2.36 0v1.573c0 .651.528 1.18 1.18 1.18zM20.058 41.685a1.18 1.18 0 0 0 1.18-1.18v-1.572a1.18 1.18 0 1 0-2.36 0v1.573c0 .651.528 1.18 1.18 1.18zM10.62 49.55a1.18 1.18 0 0 0 1.18-1.18v-1.572a1.18 1.18 0 1 0-2.36 0v1.573c0 .652.528 1.18 1.18 1.18zM15.339 49.55a1.18 1.18 0 0 0 1.18-1.18v-1.572a1.18 1.18 0 1 0-2.36 0v1.573c0 .652.528 1.18 1.18 1.18zM20.058 49.55a1.18 1.18 0 0 0 1.18-1.18v-1.572a1.18 1.18 0 1 0-2.36 0v1.573c0 .652.528 1.18 1.18 1.18zM11.8 56.236v-1.573a1.18 1.18 0 1 0-2.36 0v1.573a1.18 1.18 0 1 0 2.36 0zM15.339 57.416a1.18 1.18 0 0 0 1.18-1.18v-1.573a1.18 1.18 0 1 0-2.36 0v1.573c0 .652.528 1.18 1.18 1.18zM20.058 57.416a1.18 1.18 0 0 0 1.18-1.18v-1.573a1.18 1.18 0 1 0-2.36 0v1.573c0 .652.528 1.18 1.18 1.18zM53.091 38.54a1.18 1.18 0 0 0 1.18-1.18v-1.573a1.18 1.18 0 1 0-2.36 0v1.573c0 .651.529 1.18 1.18 1.18zM53.091 46.405a1.18 1.18 0 0 0 1.18-1.18v-1.573a1.18 1.18 0 1 0-2.36 0v1.573c0 .651.529 1.18 1.18 1.18zM53.091 54.27a1.18 1.18 0 0 0 1.18-1.18v-1.573a1.18 1.18 0 1 0-2.36 0v1.573c0 .652.529 1.18 1.18 1.18zM53.091 62.135a1.18 1.18 0 0 0 1.18-1.18v-1.573a1.18 1.18 0 1 0-2.36 0v1.573c0 .652.529 1.18 1.18 1.18zM32.249 18.483a1.18 1.18 0 0 0-1.18-1.18H21.63a1.18 1.18 0 1 0 0 2.36h9.438a1.18 1.18 0 0 0 1.18-1.18z"/>
        </g>
    </g>
</svg>
