<svg xmlns="http://www.w3.org/2000/svg" width="70" height="70"><g fill="none" fill-rule="evenodd"><path fill="#CCCCCE" d="M4.667 59.5a3.5 3.5 0 0 1-3.5-3.5V14a3.5 3.5 0 0 1 3.5-3.5h57.166v49H4.667z"/><path fill="#ACAAB0" d="M1.167 7a3.5 3.5 0 0 1 3.5-3.5h3.5v49h-3.5a3.5 3.5 0 0 0-3.5 3.5V7zm51.675 9.574l-5.592 5.593-.583.583-1.167 3.5.342.342-3.5 3.5 1.65 1.649 3.5-3.5.341.342 3.5-1.166.584-.584 5.591-5.592 1.65-1.65 2.675-2.674V10.5h-2.916l-4.425 4.425z"/><path fill="#ACAAB0" fill-rule="nonzero" d="M55.99 33.785a1.173 1.173 0 0 0-.081-.402c0-.008-.01-.015-.013-.022a1.153 1.153 0 0 0-.152-.257l-9.333-11.666A1.164 1.164 0 0 0 45.5 21H26.833a1.165 1.165 0 0 0-.892.423c0 .007-.014.008-.019.015L16.59 33.103a1.212 1.212 0 0 0-.152.257c0 .007-.01.014-.013.022a1.2 1.2 0 0 0-.082.402c0 .018-.009.032-.009.048v14c0 .645.523 1.167 1.167 1.167h37.333c.645 0 1.167-.522 1.167-1.167v-14c0-.016-.01-.03-.01-.048zM44.94 23.333l7.467 9.334h-15.68l-4.977-6.222-2.489-3.112H44.94zm-18.107.7l4.604 5.755 2.302 2.879H19.928l6.905-8.634zM18.667 35H35v11.667h-3.5V38.5c0-.645-.522-1.167-1.167-1.167h-7c-.644 0-1.166.522-1.166 1.167v8.167h-3.5V35zM24.5 46.667v-7h4.667v7H24.5zm29.167 0H37.333V35h16.334v11.667z"/><path fill="#4DB7E5" fill-rule="nonzero" d="M43.167 44.333h4.666c.645 0 1.167-.522 1.167-1.166V38.5c0-.645-.522-1.167-1.167-1.167h-4.666c-.645 0-1.167.522-1.167 1.167v4.667c0 .644.522 1.166 1.167 1.166zm1.166-4.666h2.334V42h-2.334v-2.333z"/><path fill="#4DB7E5" d="M14 49h-2.333v3.5c0 .644.522 1.167 1.166 1.167h3.5v-2.334H14V49zm0-32.667h2.333V14h-3.5c-.644 0-1.166.522-1.166 1.167v3.5H14v-2.334z"/><path fill="#CCCCCA" d="M43.167 22.167L42 25.667 44.333 28l3.5-1.167.584-.583-4.667-4.667z"/><path fill="#80CB93" d="M43.75 21.583L64.168 1.166l4.667 4.667-20.417 20.416z"/><path fill="#FFB531" d="M49.342 15.992l1.65-1.65 4.667 4.666-1.65 1.65z"/><path fill="#CCCCCA" d="M38.842 29.508l3.5-3.5 1.65 1.65-3.5 3.5z"/><path fill="#80CB93" fill-rule="nonzero" d="M32.667 68.833h36.166V32.667L32.667 68.833zm29.166-7H50.167l11.666-11.666v11.666z"/><path fill="#000" d="M60.667 17.5H63v16.333h-2.333z"/><path fill="#000" fill-rule="nonzero" d="M.16 57.148c.052.224.12.445.205.659.034.081.086.153.124.234.338.75.886 1.386 1.577 1.832.17.107.347.203.53.288.09.045.171.103.265.143.208.08.421.146.639.196.081.02.156.056.24.072.305.062.615.094.927.095h31.5v-2.334h-31.5c-.157 0-.314-.016-.467-.046-.056-.012-.109-.036-.163-.05a2.38 2.38 0 0 1-.272-.085 2.646 2.646 0 0 1-.234-.127c-.052-.03-.108-.053-.158-.086a2.439 2.439 0 0 1-.64-.64c-.044-.067-.077-.142-.116-.213-.04-.071-.071-.117-.098-.183a2.072 2.072 0 0 1-.093-.301c-.013-.046-.033-.089-.043-.137a2.334 2.334 0 0 1 2.284-2.798h3.5c.644 0 1.166-.523 1.166-1.167V11.667h40.834V9.333H9.333V3.5c0-.645-.522-1.167-1.166-1.167h-3.5A4.667 4.667 0 0 0 0 7v49c0 .313.032.626.095.933.015.072.046.141.065.215zM2.333 14V7a2.333 2.333 0 0 1 2.334-2.333H7v46.666H4.667a4.629 4.629 0 0 0-2.334.626V14z"/><path fill="#000" fill-rule="nonzero" d="M39.667 21H26.833a1.165 1.165 0 0 0-.892.423c0 .007-.014.008-.019.015L16.59 33.103a1.212 1.212 0 0 0-.152.257c0 .007-.01.014-.013.022a1.2 1.2 0 0 0-.082.402c0 .018-.009.032-.009.048v14c0 .645.523 1.167 1.167 1.167h30.333v-2.333h-10.5V35h16.334v7H56v-8.167c0-.016-.01-.03-.01-.048a1.156 1.156 0 0 0-.081-.401c0-.01-.012-.018-.015-.027a1.114 1.114 0 0 0-.15-.252l-3.5-4.38-1.822 1.456 1.983 2.486H36.728l-4.978-6.222-2.489-3.112h10.406V21zm-10.5 25.667H24.5v-7h4.667v7zm5.833 0h-3.5V38.5c0-.645-.522-1.167-1.167-1.167h-7c-.644 0-1.166.522-1.166 1.167v8.167h-3.5V35H35v11.667zm-3.563-16.878l2.302 2.878H19.928l6.905-8.634 4.604 5.756z"/><path fill="#000" fill-rule="nonzero" d="M43.167 37.333c-.645 0-1.167.522-1.167 1.167v4.667c0 .644.522 1.166 1.167 1.166h4.666c.645 0 1.167-.522 1.167-1.166V38.5c0-.645-.522-1.167-1.167-1.167h-4.666zm3.5 4.667h-2.334v-2.333h2.334V42zM69.28 31.588a1.167 1.167 0 0 0-1.272.254L31.842 68.008A1.167 1.167 0 0 0 32.667 70h36.166c.645 0 1.167-.522 1.167-1.167V32.667c0-.473-.284-.898-.72-1.079zm-1.613 36.079H35.483l32.184-32.184v32.184z"/><path fill="#000" fill-rule="nonzero" d="M49.089 62.28c.18.436.606.72 1.078.72h11.666c.645 0 1.167-.522 1.167-1.167V50.167a1.166 1.166 0 0 0-1.992-.825L49.342 61.008a1.166 1.166 0 0 0-.253 1.272zm11.578-9.297v7.684h-7.684l7.684-7.684zM64.992.342a1.166 1.166 0 0 0-1.65 0l-21 21a1.176 1.176 0 0 0-.282.456l-1.166 3.5c-.14.419-.031.88.281 1.193l.342.342-2.675 2.675 1.65 1.65 2.675-2.675.341.341a1.167 1.167 0 0 0 1.194.283l3.5-1.167c.172-.057.328-.154.456-.282l21-21a1.167 1.167 0 0 0 0-1.65L64.992.342zM44.649 26.665l-1.313-1.313.632-1.901 2.582 2.58-1.9.634zm3.768-2.065L45.4 21.583l4.767-4.767 3.017 3.017-4.767 4.767zm6.416-6.416l-3.017-3.017 12.35-12.351 3.018 3.017-12.35 12.35z"/><path fill="#000" d="M11.667 49v3.5c0 .644.522 1.167 1.166 1.167h3.5v-2.334H14V49h-2.333zm4.666-35h-3.5c-.644 0-1.166.522-1.166 1.167v3.5H14v-2.334h2.333V14z"/></g></svg>