<svg width="435" height="105" xmlns="http://www.w3.org/2000/svg"><g fill="none" fill-rule="evenodd"><path d="M43.286 10.554l13.691 14.253c1.922 2.002 3.481 5.899 3.481 8.704v11.606L43.29 27.371a4.824 4.824 0 0 0-6.988 0L19.332 44.93l.004-11.418c0-2.805 1.55-6.711 3.464-8.722l13.537-14.218c1.913-2.011 5.026-2.02 6.949-.018zm22.667 40.248V30.961c0-2.805-1.563-6.694-3.494-8.691L43.299 2.456a4.81 4.81 0 0 0-6.979.013L17.322 22.257c-1.922 2.002-3.48 5.9-3.48 8.705v19.647L3.494 61.306C1.563 63.299 0 67.193 0 69.998l.004 19.23c0 2.806 2.23 5.079 4.978 5.079l18.467.004c2.748 0 6.541-1.615 8.472-3.612l7.879-8.151 7.884 8.151c1.931 1.997 5.719 3.612 8.467 3.612l18.472-.004c2.748 0 4.978-2.273 4.978-5.079l.004-19.23c0-2.805-1.567-6.698-3.494-8.691L65.953 50.802zm-46.621 2.537v-.373l16.975-17.55a4.829 4.829 0 0 1 6.992 0l17.15 17.738L39.8 74.505 19.332 53.339zm-8.819 35.227c-2.748.013-4.969-2.252-4.956-5.058l.048-11.294c.014-2.805 1.589-6.694 3.521-8.691l6.137-6.348 20.653 21.352-6.142 6.347c-1.931 1.997-5.724 3.626-8.472 3.64l-10.789.052zm33.176-10.039l20.648-21.352 6.141 6.348c1.931 1.997 3.503 5.887 3.516 8.691l.048 11.294c.014 2.806-2.203 5.07-4.951 5.058l-10.794-.053c-2.748-.014-6.536-1.643-8.467-3.64l-6.141-6.346zm73.056-19.432V39.544h9.389c2.041 0 3.06-.943 3.06-2.827v-5.851c0-1.884-1.089-2.827-3.271-2.827h-9.178V17.271c0-2.23-.843-3.345-2.533-3.345h-8.02c-1.755 0-2.708 1.079-2.849 3.239-.21 4.601-.738 41.512-.738 41.512 0 4.53.229 8.051.686 10.558.46 2.511 1.426 4.64 2.901 6.382 1.76 2.16 4.205 3.656 7.335 4.495 3.13.834 7.615 1.256 13.454 1.256 1.966 0 3.059-.909 3.27-2.722.141-2.09.211-4.078.211-5.957 0-1.742-.847-2.687-2.533-2.827-5.066-.347-8.16-1.216-9.284-2.611-1.268-1.465-1.9-4.183-1.9-8.156zm53.092-4.705c0 6.483-.808 10.754-2.428 12.809-1.615 2.055-4.499 3.086-8.652 3.086-4.078 0-6.874-1.063-8.388-3.191-1.51-2.124-2.27-6.466-2.27-13.015 0-6.137.847-10.285 2.533-12.444 1.69-2.16 4.503-3.24 8.441-3.24 4.293 0 7.16 1.045 8.6 3.135 1.444 2.093 2.164 6.377 2.164 12.86zm14.139-.522c0-5.785-.474-10.491-1.427-14.117-.948-3.621-2.55-6.396-4.798-8.31-2.252-1.918-4.767-3.208-7.546-3.871-2.778-.663-6.417-.992-10.921-.992-4.008 0-7.436.382-10.285 1.15-2.849.768-5.487 2.124-7.914 4.078-2.428 1.953-4.254 4.793-5.487 8.52-1.229 3.731-1.844 8.349-1.844 13.854 0 10.667 1.932 17.949 5.799 21.855 3.872 3.902 10.202 5.855 18.994 5.855 9.074 0 15.579-1.988 19.521-5.961 3.936-3.972 5.908-11.329 5.908-22.061zm20.249 5.227V39.544h9.389c2.041 0 3.06-.943 3.06-2.827v-5.851c0-1.884-1.089-2.827-3.271-2.827h-9.179V17.271c0-2.23-.848-3.345-2.533-3.345h-8.02c-1.76 0-2.708 1.079-2.849 3.239-.211 4.601-.737 41.512-.737 41.512 0 4.53.228 8.051.685 10.558.457 2.511 1.422 4.64 2.901 6.382 1.76 2.16 4.201 3.656 7.335 4.495 3.13.834 7.611 1.256 13.45 1.256 1.971 0 3.06-.909 3.27-2.722.14-2.09.21-4.078.21-5.957 0-1.742-.843-2.687-2.528-2.827-5.065-.347-8.16-1.216-9.288-2.611-1.264-1.465-1.895-4.183-1.895-8.156zm51.256-.522v6.273c0 1.742-.105 2.928-.316 3.556-.21.768-.741 1.325-1.584 1.672-1.9.839-4.75 1.256-8.547 1.256-3.095 0-5.24-.575-6.435-1.726-1.194-1.149-1.796-2.84-1.796-5.069 0-2.371.672-3.978 2.006-4.812 1.41-1.045 4.434-1.567 9.074-1.567 2.252 0 4.785.136 7.598.417zm14.034 12.967V44.772c0-6.834-1.268-11.47-3.801-13.905-2.955-2.862-8.863-4.289-17.725-4.289-6.963 0-13.012.804-18.147 2.405-1.55.487-2.321 1.532-2.321 3.135 0 1.255.351 3.278 1.053 6.066.355 1.325 1.129 1.988 2.322 1.988.281 0 1.796-.211 4.539-.628 3.727-.628 7.243-.943 10.548-.943 5.136 0 8.125 1.014 8.973 3.033.351.975.526 2.581.526 4.811v2.612c-2.462-.277-5.592-.418-9.394-.418-7.945 0-13.572 1.115-16.878 3.346-3.941 2.581-5.908 6.865-5.908 12.861 0 5.298 1.422 9.464 4.271 12.497 2.848 3.028 8.107 4.547 15.775 4.547 3.586 0 7.471-.298 11.659-.891 4.183-.593 7.365-1.269 9.547-2.037 1.476-.487 2.708-1.29 3.692-2.405.843-1.045 1.269-2.717 1.269-5.017zm20.074-10.666v-44.01c0-1.045-.176-1.796-.527-2.248-.351-.452-1.021-.68-2.006-.68h-8.863c-1.83 0-2.743.979-2.743 2.928v45.787c0 5.646.772 9.688 2.322 12.129 1.405 2.159 3.394 3.744 5.962 4.758 2.568 1.01 6.277 1.515 11.132 1.515 2.041 0 3.235-.804 3.587-2.405.279-1.392.42-3.239.42-5.54 0-1.602-.771-2.511-2.321-2.722-3.235-.553-5.237-1.602-6.015-3.134-.632-1.327-.948-3.451-.948-6.378z" fill="#0667A4"/><path d="M350.13 33.355c-1.269-2.476-3.235-4.288-5.908-5.438-2.673-1.15-6.119-1.725-10.342-1.725-7.809 0-13.665 2.181-17.567 6.535-3.902 4.359-5.856 11.348-5.856 20.965 0 9.618 1.797 16.558 5.383 20.807 3.586 4.254 9.67 6.378 18.252 6.378 6.119 0 11.465-.834 16.039-2.511 1.124-.347 1.686-.939 1.686-1.773 0-.698-.246-1.536-.737-2.511-.211-.558-.632-.838-1.265-.838-.495 0-1.443.21-2.849.627-3.591 1.115-7.703 1.673-12.349 1.673-6.188 0-10.723-1.427-13.607-4.284-2.883-2.857-4.363-8.262-4.434-16.206h33.766c1.054 0 1.756-.176 2.111-.522.491-.492.737-1.537.737-3.139 0-4.254-.193-7.704-.579-10.351-.391-2.652-1.216-5.211-2.481-7.687zm-3.06 16.676h-30.39c.141-5.991 1.428-10.574 3.85-13.748 2.428-3.169 6.703-4.758 12.822-4.758 5.487 0 9.161 1.308 11.027 3.92 1.861 2.616 2.796 6.536 2.796 11.764.001 1.326-.034 2.265-.105 2.822zm36.904-22.303c-.918-.211-2.322-.312-4.223-.312-3.517 0-7.155.557-10.917 1.672-3.767 1.115-6.281 2.266-7.546 3.45-1.479 1.462-2.217 3.415-2.217 5.855v40.464c0 1.325.633 1.988 1.901 1.988h2.217c1.264 0 1.896-.663 1.896-1.988V40.483c0-1.462.176-2.511.527-3.139.355-.764.987-1.356 1.9-1.773 2.954-1.677 6.931-2.511 11.922-2.511.422 0 1.146.035 2.164.105 1.019.065 1.603.101 1.743.101.772 0 1.264-.417 1.475-1.251.211-.768.316-1.777.316-3.033.001-.696-.386-1.113-1.158-1.254zm45.563 5.592c-3.06-3.938-8.103-5.903-15.14-5.903-7.879 0-14.49 1.286-19.836 3.867-1.616.768-2.674 1.672-3.165 2.717-.352.908-.526 2.405-.526 4.499v64.614c0 1.256.597 1.884 1.795 1.884h2.322c1.264 0 1.896-.628 1.896-1.884V79.692c3.024 1.466 7.213 2.198 12.555 2.198 5.908 0 10.57-.75 13.981-2.247 3.414-1.501 6.048-4.341 7.914-8.524 1.865-4.184 2.796-10.069 2.796-17.668 0-9.482-1.532-16.194-4.592-20.131zm-5.219 38.427c-2.533 3.139-7.528 4.705-14.986 4.705-4.288 0-7.805-.558-10.548-1.672-1.269-.558-1.901-1.849-1.901-3.867V40.695c0-1.813.141-2.998.422-3.556.352-.769 1.093-1.361 2.217-1.778 4.008-1.602 8.651-2.405 13.928-2.405 5.839 0 9.741 1.62 11.712 4.864 1.971 3.239 2.954 8.66 2.954 16.259-.001 8.642-1.269 14.533-3.798 17.668z" fill="#1A293F"/></g></svg>