<?xml version="1.0" encoding="UTF-8"?>
<svg width="53px" height="60px" viewBox="0 0 53 60" version="1.1" xmlns="http://www.w3.org/2000/svg" xmlns:xlink="http://www.w3.org/1999/xlink">
    <!-- Generator: Sketch 52.6 (67491) - http://www.bohemiancoding.com/sketch -->
    <title>Shape</title>
    <desc>Created with Sketch.</desc>
    <g id="Page-1" stroke="none" stroke-width="1" fill="none" fill-rule="evenodd">
        <g id="Artboard" transform="translate(-350.000000, -2557.000000)" fill="#F5F6F8">
            <g id="Group-8" transform="translate(0.000000, 1925.000000)">
                <g id="Group-7">
                    <g id="Footer" transform="translate(0.000000, 82.000000)">
                        <path d="M378.27293,556.232064 L387.272307,565.353681 C388.535677,566.634918 389.56044,569.128915 389.56044,570.924055 L389.56044,578.351648 L378.275559,566.994586 C377.008903,565.716549 374.951489,565.716549 373.682203,566.994586 L362.527473,578.231972 L362.530102,570.924695 C362.530102,569.129555 363.548949,566.629798 364.80706,565.342801 L373.705209,556.243584 C374.962664,554.956587 377.008903,554.950827 378.27293,556.232064 Z M393.155004,582.034252 L393.155004,569.281937 C393.155004,567.479002 392.132286,564.979317 390.868776,563.695729 L378.33182,550.959484 C377.067655,549.675897 375.022875,549.681682 373.765253,550.96784 L361.333644,563.686088 C360.076022,564.972889 359.056577,567.478359 359.056577,569.281295 L359.056577,581.909557 L352.286228,588.785779 C351.022717,590.066796 350,592.569694 350,594.37263 L350.002617,606.732862 C350.002617,608.536441 351.461772,609.997429 353.25987,609.997429 L365.343376,610 C367.141474,610 369.623346,608.961946 370.886857,607.678359 L376.04232,602.43924 L381.201055,607.678359 C382.464566,608.961946 384.943166,610 386.741264,610 L398.828042,609.997429 C400.62614,609.997429 402.085295,608.536441 402.085295,606.732862 L402.087912,594.37263 C402.087912,592.569694 401.062578,590.067438 399.801684,588.786422 L393.155004,582.034252 Z M362.527473,583.718675 L362.527473,583.476296 L373.687932,572.072152 C374.957496,570.774484 377.01536,570.774484 378.284924,572.072152 L389.56044,583.59846 L375.984456,597.472527 L362.527473,583.718675 Z M357.185126,606.70326 C355.394687,606.711725 353.947611,605.236923 353.956081,603.409861 L353.987355,596.056034 C353.996477,594.229623 355.022656,591.69739 356.281437,590.39709 L360.279954,586.263736 L373.736264,600.166598 L369.734489,604.2993 C368.47636,605.5996 366.005059,606.660286 364.21462,606.669402 L357.185126,606.70326 Z M378.351648,600.166601 L391.807356,586.263736 L395.809269,590.397091 C397.067646,591.697392 398.092073,594.230276 398.100545,596.056036 L398.131825,603.409865 C398.140949,605.236928 396.696193,606.711079 394.905401,606.703266 L387.871913,606.668756 C386.081121,606.65964 383.61259,605.598954 382.354213,604.298654 L378.351648,600.166601 Z" id="Shape"></path>
                    </g>
                </g>
            </g>
        </g>
    </g>
</svg>