<svg width="53" height="60" xmlns="http://www.w3.org/2000/svg"><path d="M28.273 6.232l9 9.122c1.263 1.28 2.287 3.775 2.287 5.57v7.428L28.276 16.995a3.23 3.23 0 0 0-4.594 0L12.527 28.232l.003-7.307c0-1.795 1.019-4.295 2.277-5.582l8.898-9.1a3.19 3.19 0 0 1 4.568-.01zm14.882 25.802V19.282c0-1.803-1.023-4.303-2.286-5.586L28.332.959a3.187 3.187 0 0 0-4.567.009L11.334 13.686c-1.258 1.287-2.277 3.792-2.277 5.595V31.91l-6.77 6.876C1.022 40.066 0 42.57 0 44.373l.003 12.36a3.261 3.261 0 0 0 3.257 3.264L15.343 60c1.798 0 4.28-1.038 5.544-2.322l5.155-5.239 5.16 5.24C32.464 58.961 34.942 60 36.741 60l12.086-.003a3.261 3.261 0 0 0 3.257-3.264l.003-12.36c0-1.803-1.025-4.306-2.286-5.587l-6.647-6.752zM12.527 33.72v-.243l11.16-11.404a3.2 3.2 0 0 1 4.598 0L39.56 33.598 25.984 47.473 12.527 33.719zM7.185 56.703c-1.79.009-3.237-1.466-3.229-3.293l.031-7.354c.01-1.826 1.036-4.359 2.294-5.659l3.999-4.133 13.456 13.903-4.002 4.132c-1.258 1.3-3.729 2.361-5.52 2.37l-7.029.034zm21.167-6.536l13.455-13.903 4.002 4.133c1.259 1.3 2.283 3.833 2.292 5.659l.03 7.354c.01 1.827-1.435 3.301-3.226 3.293l-7.033-.034c-1.79-.01-4.26-1.07-5.518-2.37l-4.002-4.132z" fill="#F5F6F8" fill-rule="evenodd"/></svg>