<svg xmlns="http://www.w3.org/2000/svg" width="144" height="35"><path d="M14.464 3.164l4.575 4.703c.642.66 1.163 1.947 1.163 2.872v3.83l-5.737-5.856a1.626 1.626 0 0 0-2.335 0l-5.67 5.794.001-3.768c0-.925.518-2.214 1.158-2.877l4.523-4.692a1.606 1.606 0 0 1 2.322-.006zm7.574 13.28V9.898c0-.925-.522-2.209-1.167-2.868L14.468.493a1.622 1.622 0 0 0-2.332.004L5.788 7.026c-.642.66-1.163 1.946-1.163 2.872v6.482l-3.457 3.53C.522 20.568 0 21.852 0 22.778l.001 6.345a1.67 1.67 0 0 0 1.664 1.676l6.17.001c.919 0 2.186-.533 2.831-1.192l2.633-2.69 2.635 2.69c.645.66 1.91 1.192 2.829 1.192l6.172-.001a1.67 1.67 0 0 0 1.664-1.676l.001-6.345c0-.926-.524-2.21-1.168-2.868l-3.394-3.466zm-15.578.837v-.123l5.672-5.79a1.628 1.628 0 0 1 2.336 0L20.2 17.22l-6.9 7.045-6.84-6.984zM3.513 28.904a1.652 1.652 0 0 1-1.656-1.668l.016-3.727c.005-.925.53-2.209 1.176-2.867L5.1 18.547l6.901 7.045-2.052 2.094c-.645.66-1.913 1.197-2.83 1.201l-3.606.017zm11.086-3.312l6.9-7.045 2.051 2.095c.645.658 1.17 1.942 1.175 2.867l.016 3.727a1.65 1.65 0 0 1-1.654 1.668l-3.607-.017c-.918-.005-2.184-.542-2.829-1.201l-2.052-2.094zm24.341-6.04v-6.645h3.08c.67 0 1.004-.32 1.004-.96v-1.99c0-.64-.357-.96-1.073-.96H38.94v-3.66c0-.758-.277-1.137-.831-1.137h-2.632c-.576 0-.889.367-.935 1.1-.069 1.565-.242 14.11-.242 14.11 0 1.54.075 2.737.225 3.589.151.853.468 1.577.952 2.17.577.733 1.38 1.242 2.407 1.527 1.027.283 2.498.427 4.414.427.645 0 1.004-.309 1.073-.925.047-.71.07-1.386.07-2.025 0-.592-.278-.913-.832-.96-1.662-.119-2.677-.414-3.046-.888-.416-.499-.623-1.422-.623-2.773zm17.42-1.599c0 2.204-.265 3.655-.796 4.354-.53.698-1.477 1.049-2.84 1.049-1.337 0-2.255-.362-2.752-1.085-.495-.722-.744-2.198-.744-4.424 0-2.086.278-3.495.83-4.23.555-.733 1.478-1.1 2.77-1.1 1.41 0 2.35.355 2.822 1.065.474.711.71 2.167.71 4.371zm4.64-.177c0-1.967-.156-3.566-.469-4.799-.31-1.23-.836-2.174-1.574-2.824a5.809 5.809 0 0 0-2.476-1.316c-.911-.225-2.105-.337-3.583-.337-1.315 0-2.44.13-3.375.39a6.94 6.94 0 0 0-2.597 1.387c-.797.664-1.396 1.629-1.8 2.896-.404 1.268-.605 2.838-.605 4.709 0 3.625.634 6.1 1.902 7.428 1.271 1.326 3.348 1.99 6.233 1.99 2.977 0 5.112-.676 6.405-2.026 1.292-1.35 1.939-3.85 1.939-7.498zm6.644 1.776v-6.645h3.08c.67 0 1.005-.32 1.005-.96v-1.99c0-.64-.358-.96-1.074-.96h-3.011v-3.66c0-.758-.279-1.137-.832-1.137h-2.631c-.578 0-.889.367-.935 1.1-.07 1.565-.242 14.11-.242 14.11 0 1.54.075 2.737.225 3.589.15.853.467 1.577.952 2.17.577.733 1.378 1.242 2.407 1.527 1.027.283 2.497.427 4.413.427.647 0 1.004-.309 1.073-.925.046-.71.069-1.386.069-2.025 0-.592-.277-.913-.83-.96-1.662-.119-2.677-.414-3.047-.888-.415-.499-.622-1.422-.622-2.773zm16.818-.177v2.132c0 .592-.034.995-.104 1.209-.068.26-.243.45-.52.568-.623.285-1.558.427-2.804.427-1.015 0-1.72-.196-2.111-.587-.392-.39-.59-.965-.59-1.723 0-.806.22-1.352.659-1.635.462-.356 1.455-.533 2.977-.533.739 0 1.57.047 2.493.142zm4.605 4.407v-9.098c0-2.323-.416-3.899-1.247-4.726-.97-.973-2.908-1.458-5.816-1.458-2.285 0-4.27.273-5.955.817-.508.166-.761.521-.761 1.066 0 .427.115 1.114.345 2.062.117.45.37.675.762.675.092 0 .59-.071 1.49-.213a20.173 20.173 0 0 1 3.46-.32c1.686 0 2.667.344 2.945 1.03.115.332.172.878.172 1.636v.887c-.807-.094-1.834-.142-3.082-.142-2.607 0-4.453.38-5.538 1.138-1.293.877-1.939 2.333-1.939 4.37 0 1.802.467 3.218 1.402 4.249.934 1.029 2.66 1.545 5.176 1.545 1.177 0 2.451-.101 3.826-.303 1.372-.201 2.416-.431 3.132-.692a2.714 2.714 0 0 0 1.212-.818c.276-.355.416-.923.416-1.705zm6.587-3.625V5.198c0-.355-.058-.61-.173-.764-.115-.153-.335-.23-.658-.23h-2.909c-.6 0-.9.332-.9.994v15.563c0 1.919.254 3.293.762 4.122.461.734 1.114 1.273 1.957 1.618.842.343 2.06.515 3.652.515.67 0 1.062-.274 1.177-.818.092-.473.138-1.1.138-1.883 0-.544-.253-.853-.762-.925-1.061-.188-1.718-.545-1.973-1.065-.208-.451-.311-1.173-.311-2.168zm19.805-9.299c-.42-.823-1.069-1.426-1.952-1.808-.883-.383-2.022-.574-3.417-.574-2.58 0-4.515.725-5.804 2.173-1.29 1.45-1.935 3.773-1.935 6.97 0 3.199.594 5.506 1.779 6.92 1.184 1.414 3.195 2.12 6.03 2.12 2.022 0 3.788-.277 5.3-.835.37-.115.556-.312.556-.59 0-.232-.08-.51-.243-.834-.07-.186-.209-.28-.418-.28-.164 0-.477.07-.941.21-1.187.37-2.546.556-4.08.556-2.045 0-3.543-.475-4.496-1.425-.953-.95-1.442-2.747-1.465-5.388h11.156c.348 0 .58-.059.697-.174.163-.163.244-.51.244-1.044 0-1.414-.064-2.561-.191-3.441a8.255 8.255 0 0 0-.82-2.556zm-1.011 5.545h-10.04c.046-1.992.47-3.516 1.271-4.572.802-1.053 2.215-1.582 4.237-1.582 1.812 0 3.026.435 3.643 1.304.615.87.924 2.173.924 3.911 0 .441-.012.753-.035.939zm12.193-7.416c-.303-.07-.767-.104-1.395-.104-1.162 0-2.364.185-3.607.556-1.245.37-2.075.754-2.493 1.147-.49.486-.733 1.136-.733 1.947v13.454c0 .44.21.661.628.661h.733c.417 0 .626-.22.626-.66v-12.76c0-.486.058-.835.174-1.043.117-.255.326-.451.628-.59.976-.558 2.29-.835 3.939-.835.14 0 .379.012.715.035.337.022.53.034.576.034.255 0 .417-.14.487-.416.07-.256.105-.591.105-1.009 0-.232-.128-.37-.383-.417zm15.054 1.859c-1.011-1.31-2.677-1.963-5.002-1.963-2.603 0-4.788.428-6.554 1.286-.534.256-.884.556-1.046.904-.116.302-.174.8-.174 1.496v21.484c0 .417.198.626.594.626h.767c.417 0 .626-.209.626-.626v-7.788c1 .487 2.383.73 4.148.73 1.952 0 3.493-.249 4.62-.746 1.128-.5 1.998-1.444 2.614-2.835.617-1.39.924-3.348.924-5.874 0-3.153-.506-5.385-1.517-6.694zm-1.724 12.777c-.837 1.044-2.488 1.565-4.952 1.565-1.416 0-2.578-.186-3.485-.556-.419-.186-.628-.615-.628-1.286V13.298c0-.602.047-.996.14-1.182.116-.256.36-.453.732-.591 1.324-.533 2.858-.8 4.602-.8 1.93 0 3.218.539 3.87 1.617.65 1.077.976 2.88.976 5.407 0 2.873-.42 4.832-1.255 5.874z" fill="#FFF" fill-rule="evenodd"/></svg>