<?xml version="1.0" standalone="no"?>
<!DOCTYPE svg PUBLIC "-//W3C//DTD SVG 20010904//EN"
 "http://www.w3.org/TR/2001/REC-SVG-20010904/DTD/svg10.dtd">
<svg version="1.0" xmlns="http://www.w3.org/2000/svg"
 width="83.000000pt" height="83.000000pt" viewBox="0 0 83.000000 83.000000"
 preserveAspectRatio="xMidYMid meet">
<metadata>
Created by potrace 1.11, written by Peter Selinger 2001-2013
</metadata>
<g transform="translate(0.000000,83.000000) scale(0.100000,-0.100000)"
fill="#000000" stroke="none">
<path d="M297 731 c-54 -55 -102 -112 -107 -126 -6 -14 -10 -68 -10 -119 l0
-92 -51 -54 c-28 -30 -55 -64 -60 -78 -12 -32 -11 -209 1 -233 10 -17 22 -19
116 -19 114 0 123 3 190 67 l37 35 21 -24 c65 -72 79 -78 195 -78 70 0 111 4
119 12 14 14 17 205 3 240 -5 13 -32 48 -60 78 l-51 55 0 92 c0 50 -5 104 -11
120 -13 35 -198 223 -220 223 -9 0 -59 -45 -112 -99z m194 -38 c94 -98 99
-107 99 -183 l0 -65 -82 83 c-44 45 -89 82 -98 82 -9 0 -54 -37 -98 -82 l-82
-83 0 60 c0 33 6 72 14 86 29 56 143 165 177 168 3 1 34 -29 70 -66z m18 -237
l84 -84 -92 -94 -91 -93 -91 94 -91 94 83 83 c46 46 91 84 99 84 8 0 53 -38
99 -84z m-227 -212 c46 -47 84 -89 86 -94 4 -11 -57 -70 -85 -81 -35 -13 -147
-11 -161 3 -13 13 -16 140 -4 171 9 20 64 85 74 86 4 1 44 -38 90 -85z m376
62 c12 -13 29 -37 37 -52 18 -35 20 -165 3 -182 -14 -14 -126 -16 -162 -2 -28
10 -88 69 -84 81 4 12 170 179 177 179 3 0 16 -11 29 -24z"/>
</g>
</svg>
