<svg xmlns="http://www.w3.org/2000/svg" width="70" height="70" viewBox="0 0 70 70">
    <g fill="none" fill-rule="evenodd">
        <path fill="#F8F8F9" d="M6.325 1.265h37.108v64.096H6.325z"/>
        <path fill="#EDEDED" d="M35 1.265h8.434v64.096H35z"/>
        <path fill="#DBDBDB" d="M63.675 63.674V14.759H43.434v48.915"/>
        <path fill="#95D5A7" d="M64.518 68.735a2.53 2.53 0 0 0 1.36-4.662 2.53 2.53 0 0 0-2.203-3.772c-.65 0-1.24.247-1.687.648a2.517 2.517 0 0 0-3.374 0 2.517 2.517 0 0 0-3.373 0 2.517 2.517 0 0 0-3.373 0 2.517 2.517 0 0 0-3.374 0 2.517 2.517 0 0 0-3.373 0 2.517 2.517 0 0 0-3.374 0 2.517 2.517 0 0 0-3.373 0 2.517 2.517 0 0 0-3.373 0 2.517 2.517 0 0 0-3.374 0 2.517 2.517 0 0 0-3.373 0 2.517 2.517 0 0 0-3.374 0 2.517 2.517 0 0 0-3.373 0 2.517 2.517 0 0 0-3.373 0 2.517 2.517 0 0 0-3.374 0 2.517 2.517 0 0 0-3.373 0 2.517 2.517 0 0 0-3.374 0 2.517 2.517 0 0 0-1.686-.648 2.53 2.53 0 0 0-2.203 3.772 2.53 2.53 0 0 0 1.36 4.662h59.034z"/>
        <path fill="#80CB93" d="M65.877 64.073a2.53 2.53 0 0 0-2.203-3.772c-.648 0-1.239.247-1.686.648a2.517 2.517 0 0 0-3.374 0 2.517 2.517 0 0 0-3.373 0 2.517 2.517 0 0 0-3.373 0 2.517 2.517 0 0 0-3.374 0 2.517 2.517 0 0 0-3.373 0 2.517 2.517 0 0 0-3.374 0 2.517 2.517 0 0 0-3.373 0 2.517 2.517 0 0 0-3.373 0v7.786h29.518a2.53 2.53 0 0 0 1.358-4.662z"/>
        <g fill="#2E2D31">
            <path fill-rule="nonzero" d="M68.735 67.47h-.64c.14-.396.218-.822.218-1.265 0-.938-.341-1.822-.945-2.505a3.801 3.801 0 0 0-2.429-4.446V14.759c0-.699-.566-1.265-1.264-1.265H44.699V1.265C44.699.566 44.132 0 43.434 0H6.325C5.627 0 5.06.566 5.06 1.265v57.989a3.801 3.801 0 0 0-2.428 4.445 3.774 3.774 0 0 0-.945 2.505c0 .444.077.87.218 1.266h-.64a1.265 1.265 0 1 0 0 2.53h67.47a1.265 1.265 0 0 0 0-2.53zM62.41 16.024v43.23c-.144.052-.285.11-.422.18a3.778 3.778 0 0 0-3.374 0 3.779 3.779 0 0 0-3.373 0 3.778 3.778 0 0 0-3.373 0 3.778 3.778 0 0 0-3.374 0 3.778 3.778 0 0 0-3.373 0 3.803 3.803 0 0 0-.422-.18v-43.23h17.71zM42.169 2.53v56.725c-.144.05-.285.11-.422.178a3.778 3.778 0 0 0-2.952-.178v-.64a1.265 1.265 0 1 0-2.53 0v.445c-.442.05-.87.176-1.265.373a3.774 3.774 0 0 0-1.265-.373v-.446a1.265 1.265 0 1 0-2.53 0v.64a3.78 3.78 0 0 0-2.53 0v-.64a1.265 1.265 0 1 0-2.53 0v.446c-.442.05-.87.176-1.265.373a3.774 3.774 0 0 0-1.265-.373v-.446a1.265 1.265 0 1 0-2.53 0v.64a3.78 3.78 0 0 0-2.53 0v-.64a1.265 1.265 0 1 0-2.53 0v.446c-.442.05-.87.176-1.266.373a3.774 3.774 0 0 0-1.265-.373v-.446a1.265 1.265 0 1 0-2.53 0v.64a3.78 3.78 0 0 0-2.952.18 3.803 3.803 0 0 0-.421-.18V2.53h34.578zM5.482 67.47a1.266 1.266 0 0 1-1.265-1.265c0-.433.22-.831.587-1.066.566-.362.75-1.103.42-1.688a1.266 1.266 0 0 1 1.102-1.884c.396 0 .676.176.841.324.481.431 1.21.431 1.69 0 .165-.148.445-.325.842-.325.397 0 .677.177.842.325.48.431 1.209.431 1.69 0 .165-.148.445-.325.842-.325.397 0 .677.177.842.325.48.431 1.209.431 1.69 0 .165-.148.445-.325.841-.325.397 0 .677.177.842.325.481.431 1.21.431 1.69 0 .165-.148.445-.325.842-.325.397 0 .677.177.842.325.48.431 1.209.431 1.69 0 .165-.148.445-.325.842-.325.397 0 .677.177.842.325.48.431 1.209.431 1.69 0 .165-.148.445-.325.841-.325.397 0 .677.177.843.325.48.431 1.208.431 1.69 0 .164-.148.444-.325.841-.325.397 0 .677.177.842.325.48.431 1.21.431 1.69 0 .165-.148.445-.325.842-.325.397 0 .677.177.842.325.48.431 1.209.431 1.69 0 .165-.148.445-.325.841-.325.397 0 .677.177.843.325.48.431 1.208.431 1.69 0 .164-.148.444-.325.841-.325.397 0 .677.177.842.325.48.431 1.21.431 1.69 0 .165-.148.445-.325.842-.325.397 0 .677.177.842.325.48.431 1.209.431 1.69 0 .165-.148.445-.325.841-.325.397 0 .677.177.843.325.48.431 1.208.431 1.69 0 .164-.148.444-.325.841-.325.397 0 .677.177.842.325.48.431 1.21.431 1.69 0 .165-.148.445-.325.842-.325.397 0 .677.177.842.325.48.431 1.209.431 1.69 0 .165-.148.445-.325.842-.325.396 0 .676.177.842.325.48.431 1.208.431 1.69 0 .164-.148.444-.325.841-.325.397 0 .677.177.842.325.48.431 1.21.431 1.69 0 .165-.148.445-.325.842-.325a1.266 1.266 0 0 1 1.102 1.885 1.265 1.265 0 0 0 .42 1.688c.367.235.586.633.586 1.066 0 .697-.567 1.265-1.265 1.265H5.482z"/>
            <path d="M48.494 22.77h10.12a1.265 1.265 0 1 0 0-2.53h-10.12a1.265 1.265 0 1 0 0 2.53zM48.494 29.518h10.12a1.265 1.265 0 1 0 0-2.53h-10.12a1.265 1.265 0 1 0 0 2.53zM48.494 36.265h10.12a1.265 1.265 0 1 0 0-2.53h-10.12a1.265 1.265 0 1 0 0 2.53zM48.494 43.012h10.12a1.265 1.265 0 1 0 0-2.53h-10.12a1.265 1.265 0 1 0 0 2.53zM48.494 49.759h10.12a1.265 1.265 0 1 0 0-2.53h-10.12a1.265 1.265 0 1 0 0 2.53zM48.494 56.506h10.12a1.265 1.265 0 1 0 0-2.53h-10.12a1.265 1.265 0 1 0 0 2.53zM12.23 10.964c.698 0 1.264-.567 1.264-1.265V8.012a1.265 1.265 0 1 0-2.53 0v1.687c0 .699.566 1.265 1.265 1.265zM17.29 10.964c.698 0 1.264-.567 1.264-1.265V8.012a1.265 1.265 0 1 0-2.53 0v1.687c0 .699.567 1.265 1.265 1.265zM22.35 10.964c.698 0 1.264-.567 1.264-1.265V8.012a1.265 1.265 0 1 0-2.53 0v1.687c0 .699.567 1.265 1.265 1.265zM27.41 10.964c.698 0 1.265-.567 1.265-1.265V8.012a1.265 1.265 0 1 0-2.53 0v1.687c0 .699.566 1.265 1.265 1.265zM32.47 10.964c.699 0 1.265-.567 1.265-1.265V8.012a1.265 1.265 0 1 0-2.53 0v1.687c0 .699.566 1.265 1.265 1.265zM37.53 10.964c.699 0 1.265-.567 1.265-1.265V8.012a1.265 1.265 0 1 0-2.53 0v1.687c0 .699.566 1.265 1.265 1.265zM12.23 19.398c.698 0 1.264-.567 1.264-1.266v-1.686a1.265 1.265 0 1 0-2.53 0v1.686c0 .7.566 1.266 1.265 1.266zM17.29 19.398c.698 0 1.264-.567 1.264-1.266v-1.686a1.265 1.265 0 1 0-2.53 0v1.686c0 .7.567 1.266 1.265 1.266zM22.35 19.398c.698 0 1.264-.567 1.264-1.266v-1.686a1.265 1.265 0 1 0-2.53 0v1.686c0 .7.567 1.266 1.265 1.266zM27.41 19.398c.698 0 1.265-.567 1.265-1.266v-1.686a1.265 1.265 0 1 0-2.53 0v1.686c0 .7.566 1.266 1.265 1.266zM32.47 19.398c.699 0 1.265-.567 1.265-1.266v-1.686a1.265 1.265 0 1 0-2.53 0v1.686c0 .7.566 1.266 1.265 1.266zM37.53 19.398c.699 0 1.265-.567 1.265-1.266v-1.686a1.265 1.265 0 1 0-2.53 0v1.686c0 .7.566 1.266 1.265 1.266zM12.23 27.831c.698 0 1.264-.566 1.264-1.265V24.88a1.265 1.265 0 1 0-2.53 0v1.687c0 .699.566 1.265 1.265 1.265zM17.29 27.831c.698 0 1.264-.566 1.264-1.265V24.88a1.265 1.265 0 1 0-2.53 0v1.687c0 .699.567 1.265 1.265 1.265zM22.35 27.831c.698 0 1.264-.566 1.264-1.265V24.88a1.265 1.265 0 1 0-2.53 0v1.687c0 .699.567 1.265 1.265 1.265zM27.41 27.831c.698 0 1.265-.566 1.265-1.265V24.88a1.265 1.265 0 1 0-2.53 0v1.687c0 .699.566 1.265 1.265 1.265zM32.47 27.831c.699 0 1.265-.566 1.265-1.265V24.88a1.265 1.265 0 1 0-2.53 0v1.687c0 .699.566 1.265 1.265 1.265zM37.53 27.831c.699 0 1.265-.566 1.265-1.265V24.88a1.265 1.265 0 1 0-2.53 0v1.687c0 .699.566 1.265 1.265 1.265zM12.23 36.265c.698 0 1.264-.566 1.264-1.265v-1.687a1.265 1.265 0 1 0-2.53 0V35c0 .699.566 1.265 1.265 1.265zM17.29 36.265c.698 0 1.264-.566 1.264-1.265v-1.687a1.265 1.265 0 1 0-2.53 0V35c0 .699.567 1.265 1.265 1.265zM22.35 36.265c.698 0 1.264-.566 1.264-1.265v-1.687a1.265 1.265 0 1 0-2.53 0V35c0 .699.567 1.265 1.265 1.265zM27.41 36.265c.698 0 1.265-.566 1.265-1.265v-1.687a1.265 1.265 0 1 0-2.53 0V35c0 .699.566 1.265 1.265 1.265zM32.47 36.265c.699 0 1.265-.566 1.265-1.265v-1.687a1.265 1.265 0 1 0-2.53 0V35c0 .699.566 1.265 1.265 1.265zM37.53 36.265c.699 0 1.265-.566 1.265-1.265v-1.687a1.265 1.265 0 1 0-2.53 0V35c0 .699.566 1.265 1.265 1.265zM12.23 44.699c.698 0 1.264-.567 1.264-1.266v-1.686a1.265 1.265 0 1 0-2.53 0v1.686c0 .7.566 1.266 1.265 1.266zM17.29 44.699c.698 0 1.264-.567 1.264-1.266v-1.686a1.265 1.265 0 1 0-2.53 0v1.686c0 .7.567 1.266 1.265 1.266zM22.35 44.699c.698 0 1.264-.567 1.264-1.266v-1.686a1.265 1.265 0 1 0-2.53 0v1.686c0 .7.567 1.266 1.265 1.266zM27.41 44.699c.698 0 1.265-.567 1.265-1.266v-1.686a1.265 1.265 0 1 0-2.53 0v1.686c0 .7.566 1.266 1.265 1.266zM32.47 44.699c.699 0 1.265-.567 1.265-1.266v-1.686a1.265 1.265 0 1 0-2.53 0v1.686c0 .7.566 1.266 1.265 1.266zM37.53 44.699c.699 0 1.265-.567 1.265-1.266v-1.686a1.265 1.265 0 1 0-2.53 0v1.686c0 .7.566 1.266 1.265 1.266zM12.23 53.132c.698 0 1.264-.566 1.264-1.265v-1.686a1.265 1.265 0 1 0-2.53 0v1.686c0 .699.566 1.265 1.265 1.265zM17.29 53.132c.698 0 1.264-.566 1.264-1.265v-1.686a1.265 1.265 0 1 0-2.53 0v1.686c0 .699.567 1.265 1.265 1.265zM22.35 53.132c.698 0 1.264-.566 1.264-1.265v-1.686a1.265 1.265 0 1 0-2.53 0v1.686c0 .699.567 1.265 1.265 1.265zM27.41 53.132c.698 0 1.265-.566 1.265-1.265v-1.686a1.265 1.265 0 1 0-2.53 0v1.686c0 .699.566 1.265 1.265 1.265zM32.47 53.132c.699 0 1.265-.566 1.265-1.265v-1.686a1.265 1.265 0 1 0-2.53 0v1.686c0 .699.566 1.265 1.265 1.265zM37.53 53.132c.699 0 1.265-.566 1.265-1.265v-1.686a1.265 1.265 0 1 0-2.53 0v1.686c0 .699.566 1.265 1.265 1.265z"/>
        </g>
    </g>
</svg>
